<svg t="1737537104512" class="icon" viewBox="0 0 1024 1024" version="1.1" xmlns="http://www.w3.org/2000/svg" p-id="1661" width="32" height="32"><path d="M552 162.016h268.992l-176.992 176.992-92-176.992z m-31.008 8l84.992 168.992-192-23.008-23.008-15.008 130.016-131.008z m323.008 14.976l62.016 654.016-246.016-468.992 184-184.992z m-468.992 146.016q208 31.008 231.008 46.016l-184.992 184.992-46.016-231.008z m-31.008 16l47.008 215.008H368l-147.008-84.992 123.008-130.016z m292.992 45.984l215.008 415.008-415.008-215.008 200-200zM206.016 508l176.992 92-176.992 176.992v-268.992z m208 108l468.992 246.016L236.992 816l-8-16 184.992-184z" fill="#1296db" p-id="1662"></path></svg>